<svg width="18" height="18" viewBox="0 0 18 18" fill="none" xmlns="http://www.w3.org/2000/svg">
<path d="M1.5 10.5C1.5 8.39332 1.5 7.33996 2.00559 6.58329C2.22447 6.25572 2.50572 5.97447 2.83329 5.75559C3.58996 5.25 4.64331 5.25 6.75 5.25H11.25C13.3567 5.25 14.41 5.25 15.1667 5.75559C15.4942 5.97447 15.7755 6.25572 15.9944 6.58329C16.5 7.33996 16.5 8.39332 16.5 10.5C16.5 12.6067 16.5 13.66 15.9944 14.4167C15.7755 14.7442 15.4942 15.0255 15.1667 15.2444C14.41 15.75 13.3567 15.75 11.25 15.75H6.75C4.64331 15.75 3.58996 15.75 2.83329 15.2444C2.50572 15.0255 2.22447 14.7442 2.00559 14.4167C1.5 13.66 1.5 12.6067 1.5 10.5Z" stroke="#303030" stroke-linecap="round" stroke-linejoin="round"/>
<path d="M12 5.25C12 3.83579 12 3.12868 11.5606 2.68934C11.1213 2.25 10.4142 2.25 9 2.25C7.5858 2.25 6.87868 2.25 6.43934 2.68934C6 3.12868 6 3.83579 6 5.25" stroke="#303030" stroke-linecap="round" stroke-linejoin="round"/>
<path d="M4.5 8.25L4.98898 8.4015C7.56382 9.1995 10.4362 9.1995 13.011 8.4015L13.5 8.25M9 9V10.5" stroke="#303030" stroke-linecap="round" stroke-linejoin="round"/>
</svg>
